<svg version="1.1" xmlns="http://www.w3.org/2000/svg" xmlns:xlink="http://www.w3.org/1999/xlink" x="0px" y="0px" viewBox="0 0 3710 3710" style="enable-background:new 0 0 3710 3710;" xml:space="preserve">
<g id="Background">
	<g>
		<g>
			<rect style="fill:#FFFFFF;" width="3710" height="3710"></rect>
		</g>
	</g>
</g>
<g id="Illustration">
	<g>
		<path style="fill: rgb(244, 247, 250); opacity: 1;" d="M1824.902,380.826C1079.22,358.182,433.301,914.601,335.714,1644.693
			c-106.697,798.256,480.552,1516.495,1203.137,1631.531c898.775,143.087,1770.535-684.685,1692.26-1582.693
			C3172.138,1016.96,2582.904,403.844,1824.902,380.826z" data-index="0"></path>
		<g>
			<g>
				<linearGradient id="SVGID_1_" gradientUnits="userSpaceOnUse" x1="517.4851" y1="1771.3875" x2="2537.3965" y2="1771.3875">
					<stop offset="0.0036" style="stop-color:#E38DDD"></stop>
					<stop offset="1" style="stop-color:#9571F6"></stop>
				</linearGradient>
				<path style="fill:url(#SVGID_1_);" d="M2402.31,453.08L666.004,398.07c-81.89-2.595-148.519,58.716-148.519,136.949v2473.375
					c0,78.234,66.629,139.247,148.519,136.287l1736.305-62.756c74.724-2.701,135.087-65.151,135.087-139.497V591.975
					C2537.396,517.63,2477.034,455.448,2402.31,453.08z" data-index="1"></path>
				<path style="opacity:0.74;fill:#FFFFFF;" d="M565.026,3021.571V521.63c0-45.056,38.354-80.408,85.566-78.965l1765.826,53.98
					c43.088,1.317,77.948,37.172,77.948,80.087v2381.13c0,42.915-34.859,78.925-77.947,80.434l-1765.826,61.858
					C603.38,3101.809,565.026,3066.627,565.026,3021.571z" data-index="2"></path>
				
					<linearGradient id="SVGID_00000100344202355180165690000001924927593614547079_" gradientUnits="userSpaceOnUse" x1="1538.5022" y1="508.0434" x2="1366.8303" y2="2059.7012">
					<stop offset="0" style="stop-color:#40447E"></stop>
					<stop offset="0.9964" style="stop-color:#3C3B6B"></stop>
				</linearGradient>
				<path style="fill:url(#SVGID_00000100344202355180165690000001924927593614547079_);" d="M2402.311,453.08L666.005,398.07
					c-81.889-2.594-148.519,58.716-148.519,136.95v101.615l2019.912,51.905v-96.565
					C2537.397,517.629,2477.034,455.448,2402.311,453.08z" data-index="3"></path>
				<path style="fill:#FFFFFF;" d="M781.664,528.834c0,25.438-21.571,45.469-48.212,44.74
					c-26.676-0.731-48.327-21.995-48.327-47.494c0-25.499,21.651-45.528,48.327-44.736
					C760.093,482.134,781.664,503.396,781.664,528.834z" data-index="4"></path>
				<path style="fill:#FFFFFF;" d="M950.085,533.64c0,25.332-21.391,45.282-47.81,44.559c-26.454-0.725-47.924-21.898-47.924-47.29
					c0-25.393,21.47-45.34,47.924-44.555C928.694,487.137,950.085,508.308,950.085,533.64z" data-index="5"></path>
				<path style="fill:#FFFFFF;" d="M1117.107,538.406c0,25.227-21.214,45.096-47.414,44.379
					c-26.234-0.719-47.526-21.801-47.526-47.088c0-25.287,21.292-45.154,47.526-44.376
					C1095.894,492.099,1117.107,513.179,1117.107,538.406z" data-index="6"></path>
				
					<linearGradient id="SVGID_00000170251862348571494130000009349202111197659287_" gradientUnits="userSpaceOnUse" x1="690.6189" y1="1789.661" x2="2379.7349" y2="1789.661">
					<stop offset="0.0036" style="stop-color:#E38DDD"></stop>
					<stop offset="1" style="stop-color:#9571F6"></stop>
				</linearGradient>
				<polygon style="fill:url(#SVGID_00000170251862348571494130000009349202111197659287_);" points="2379.735,2477.38 
					690.619,2512.064 690.619,1067.258 2379.735,1092.876 				"></polygon>
				<polygon style="opacity:0.42;fill:#FFFFFF;" points="2379.735,2639.764 690.619,2681.521 690.619,2609.459 2379.735,2570.71 
									"></polygon>
				<polygon style="opacity:0.42;fill:#FFFFFF;" points="2379.735,2809.161 690.619,2858.295 690.619,2786.234 2379.735,2740.107 
									"></polygon>
				<g style="opacity:0.42;">
					<polygon style="fill:#FFFFFF;" points="1987.177,922.895 690.62,897.802 690.62,969.863 1987.177,992.647 					"></polygon>
					<polygon style="fill:#FFFFFF;" points="2235.486,927.7 2235.486,997.011 2379.736,999.546 2379.736,930.492 					"></polygon>
				</g>
				<g style="opacity:0.15;">
					<path style="fill: rgb(255, 255, 255); opacity: 1;" d="M1945.21,1924.382c-279.413-339.038-629.622-356.901-824.495-716.781
						c-140.999-260.388-121.001-552.675-58.425-796.976L666.003,398.07c-81.889-2.594-148.517,58.716-148.517,136.949v2473.375
						c0,78.234,66.628,139.247,148.517,136.287l1560.705-56.409C2274.862,2461.525,2107.509,2121.314,1945.21,1924.382z" data-index="7"></path>
				</g>
			</g>
			<g>
				<path style="fill:#FFFFFF;" d="M1814.764,1162.655l-526.675-6.939c-48.497-0.639-87.897,36.962-87.897,83.984v144.115
					c0,47.024,39.4,85.352,87.897,85.609l526.675,2.795c47.11,0.25,85.217-37,85.217-83.2v-141.591
					C1899.981,1201.229,1861.874,1163.275,1814.764,1162.655z" data-index="8"></path>
				<g>
					<path style="fill:#FFFFFF;" d="M1206.057,1685.935l-375.996,0.046c-25.601,0.003-46.38,19.893-46.38,44.424v164.041
						c0,24.532,20.779,44.286,46.38,44.122l375.996-2.401c25.094-0.16,45.415-19.947,45.415-44.194v-162.141
						C1251.472,1705.586,1231.151,1685.932,1206.057,1685.935z" data-index="9"></path>
					<path style="fill:#FFFFFF;" d="M1735.356,1685.87l-366.052,0.045c-24.923,0.003-45.15,19.626-45.15,43.83v161.845
						c0,24.203,20.227,43.695,45.15,43.536l366.052-2.337c24.436-0.156,44.223-19.679,44.223-43.605v-159.995
						C1779.579,1705.261,1759.792,1685.867,1735.356,1685.87z" data-index="10"></path>
					<path style="fill: rgb(255, 255, 255); opacity: 1;" d="M2250.818,1685.807l-356.5,0.044c-24.27,0.003-43.966,19.367-43.966,43.251v159.707
						c0,23.884,19.696,43.119,43.966,42.964l356.5-2.276c23.802-0.152,43.075-19.418,43.075-43.032v-157.905
						C2293.893,1704.945,2274.619,1685.804,2250.818,1685.807z" data-index="11"></path>
				</g>
				<g>
					<polygon style="opacity:0.51;fill:#FFFFFF;" points="1561.44,1662.466 1544.911,1662.458 1544.911,1490.492 1561.44,1490.572 
											"></polygon>
					<path style="opacity:0.51;fill:#FFFFFF;" d="M1027.426,1662.215l-16.978-0.008v-44.133c0-23.755,20.08-43.029,44.735-42.964
						l369.065,0.975c15.009,0.04,27.211-11.793,27.211-26.377v-59.666l16.607,0.08v59.641c0,23.484-19.644,42.547-43.819,42.493
						l-369.065-0.825c-15.301-0.034-27.757,11.929-27.757,26.67V1662.215z" data-index="12"></path>
					<path style="opacity:0.51;fill:#FFFFFF;" d="M2081.427,1662.71l-16.098-0.008v-42.973c0-14.359-11.828-26.067-26.376-26.099
						l-357.684-0.799c-23.892-0.053-43.349-19.122-43.349-42.506v-59.385l16.452,0.079v59.361c0,14.51,12.07,26.346,26.897,26.385
						l357.684,0.945c23.432,0.062,42.474,18.924,42.474,42.045V1662.71z" data-index="13"></path>
				</g>
				<g>
					<path style="fill: rgb(255, 255, 255); opacity: 1;" d="M1206.057,2162.153l-375.996,4.527c-25.601,0.308-46.38,20.445-46.38,44.977v164.041
						c0,24.531,20.779,44.038,46.38,43.57l375.996-6.882c25.094-0.459,45.415-20.488,45.415-44.735v-162.14
						C1251.472,2181.263,1231.151,2161.851,1206.057,2162.153z" data-index="14"></path>
					<path style="fill:#FFFFFF;" d="M1735.356,2155.78l-366.052,4.408c-24.923,0.3-45.15,20.165-45.15,44.368V2366.4
						c0,24.203,20.227,43.454,45.15,42.998l366.052-6.7c24.436-0.447,44.223-20.206,44.223-44.133V2198.57
						C1779.579,2174.644,1759.792,2155.485,1735.356,2155.78z" data-index="15"></path>
					<path style="fill:#FFFFFF;" d="M2250.818,2149.573l-356.5,4.292c-24.27,0.292-43.966,19.891-43.966,43.775v159.707
						c0,23.884,19.696,42.885,43.966,42.44l356.5-6.525c23.802-0.436,43.075-19.932,43.075-43.546v-157.906
						C2293.893,2168.197,2274.619,2149.286,2250.818,2149.573z" data-index="16"></path>
				</g>
				<g>
					<polygon style="opacity:0.51;fill:#FFFFFF;" points="1561.44,2134.448 1544.911,2134.637 1544.911,1962.671 1561.44,1962.554 
											"></polygon>
					<path style="opacity:0.51;fill:#FFFFFF;" d="M1027.426,2140.562l-16.978,0.194v-44.133c0-23.755,20.08-43.268,44.735-43.497
						l369.065-3.424c15.009-0.139,27.211-12.117,27.211-26.701v-59.666l16.607-0.118v59.641c0,23.484-19.644,42.781-43.819,43.015
						l-369.065,3.574c-15.301,0.148-27.757,12.26-27.757,27V2140.562z" data-index="17"></path>
					<path style="opacity:0.51;fill:#FFFFFF;" d="M2081.427,2128.494l-16.098,0.184v-42.973c0-14.359-11.828-25.926-26.376-25.785
						l-357.684,3.464c-23.892,0.231-43.349-18.605-43.349-41.989v-59.385l16.452-0.117v59.361c0,14.51,12.07,26.202,26.897,26.064
						l357.684-3.318c23.432-0.217,42.474,18.418,42.474,41.539V2128.494z" data-index="18"></path>
				</g>
			</g>
		</g>
		<g>
			<g>
				<path style="fill:#D8DEE8;" d="M3118.468,948.245l-1068.64-103.484c-35.043-3.393-71.194,21.049-80.659,54.659l-209.458,743.726
					c-9.859,35.006,11.604,65.101,47.848,67.155l1103.988,62.557c32.613,1.848,65.686-23.559,73.949-56.691l175.742-704.7
					C3169.188,979.585,3150.073,951.305,3118.468,948.245z" data-index="19"></path>
				
					<linearGradient id="SVGID_00000075159275341086953990000001342720901900997289_" gradientUnits="userSpaceOnUse" x1="3046.696" y1="694.6738" x2="2065.2373" y2="2657.5867" gradientTransform="matrix(0.9984 0.0566 -0.257 0.9512 138.8119 -150.1158)">
					<stop offset="0" style="stop-color:#E3E7EF"></stop>
					<stop offset="1" style="stop-color:#FAFBFD"></stop>
				</linearGradient>
				<path style="fill: url(&quot;#SVGID_00000075159275341086953990000001342720901900997289_&quot;); opacity: 1;" d="M3128.491,950.884L2059.851,847.4
					c-35.043-3.393-71.194,21.049-80.659,54.659l-209.458,743.726c-9.859,35.006,11.604,65.101,47.848,67.155l1103.988,62.557
					c32.613,1.848,65.686-23.559,73.949-56.691l175.742-704.7C3179.212,982.224,3160.097,953.945,3128.491,950.884z" data-index="20"></path>
				
					<linearGradient id="SVGID_00000074429480758714687120000015383685391239987610_" gradientUnits="userSpaceOnUse" x1="2593.3542" y1="602.9658" x2="2801.6658" y2="1436.2148" gradientTransform="matrix(0.9984 0.0566 -0.257 0.9512 138.8119 -150.1158)">
					<stop offset="0" style="stop-color:#FF9085"></stop>
					<stop offset="1" style="stop-color:#FB6FBB"></stop>
				</linearGradient>
				<path style="fill: url(&quot;#SVGID_00000074429480758714687120000015383685391239987610_&quot;); opacity: 1;" d="M3128.491,950.884L2059.851,847.4
					c-35.043-3.393-71.194,21.049-80.66,54.659l-12.319,43.743l1194.043,109.793l10.347-41.489
					C3179.213,982.224,3160.097,953.945,3128.491,950.884z" data-index="21"></path>
				<path style="fill:#FFFFFF;" d="M2094.174,906.841c-3.052,10.956-14.799,18.976-26.246,17.908
					c-11.46-1.07-18.269-10.839-15.2-21.815c3.068-10.969,14.838-18.973,26.28-17.883
					C2090.438,886.139,2097.224,895.892,2094.174,906.841z" data-index="22"></path>
				<path style="fill:#FFFFFF;" d="M2166.579,913.667c-3.021,10.921-14.681,18.92-26.053,17.858
					c-11.384-1.063-18.157-10.799-15.118-21.74c3.037-10.935,14.72-18.916,26.086-17.834
					C2162.848,893.033,2169.598,902.752,2166.579,913.667z" data-index="23"></path>
				<path style="fill:#FFFFFF;" d="M2238.505,920.447c-2.99,10.887-14.565,18.864-25.862,17.809
					c-11.309-1.056-18.046-10.758-15.038-21.665c3.006-10.9,14.603-18.86,25.895-17.785
					C2234.78,899.881,2241.494,909.567,2238.505,920.447z" data-index="24"></path>
				<polygon style="fill:#D8DEE8;" points="2979.108,1506.666 1907.206,1432.018 1989.585,1137.403 3049.677,1225.73 				"></polygon>
				<polygon style="fill:#FFFFFF;" points="2961.124,1578.263 1886.201,1507.135 1895.143,1475.156 2968.78,1547.784 				"></polygon>
				<polygon style="fill:#FFFFFF;" points="2942.292,1653.236 1864.202,1585.811 1873.181,1553.701 2949.978,1622.639 				"></polygon>
				<g>
					<polygon style="fill:#FFFFFF;" points="2573.764,1112.616 2010.188,1063.722 2001.437,1095.02 2565.69,1143.149 					"></polygon>
					<polygon style="fill:#FFFFFF;" points="3005.925,1150.109 2998.354,1180.053 3059.833,1185.297 3067.334,1155.437 					"></polygon>
				</g>
				<g style="opacity:0.5;">
					<path style="fill: rgb(255, 255, 255); opacity: 1;" d="M2603.849,1305.624c-80.934-183.328-313.716-143.573-398.577-342.846
						c-15.167-35.615-22.261-71.209-24.868-103.704L2059.851,847.4c-35.042-3.393-71.194,21.049-80.66,54.659l-209.458,743.727
						c-9.859,35.006,11.605,65.101,47.849,67.155l835.911,47.367c-16.26-36.617-29.492-77.04-37.953-121.583
						C2583.323,1469.119,2653.232,1417.484,2603.849,1305.624z" data-index="25"></path>
				</g>
			</g>
			<g>
				
					<linearGradient id="SVGID_00000016766702977015222100000003179841745694260617_" gradientUnits="userSpaceOnUse" x1="1881.3302" y1="1262.1515" x2="1805.3806" y2="1344.212">
					<stop offset="0" style="stop-color:#FFC444"></stop>
					<stop offset="0.9964" style="stop-color:#F36F56"></stop>
				</linearGradient>
				<path style="fill:url(#SVGID_00000016766702977015222100000003179841745694260617_);" d="M1886.328,1317.9l-27.765-27.765
					c0,0-20.823-26.897-6.941-65.073c13.882-38.176,32.971-27.765,32.971-27.765l-5.207,26.897c0,0-3.47,17.352,13.015,39.044
					c14.75,26.029,17.353,45.985,17.353,45.985L1886.328,1317.9z" data-index="26"></path>
				
					<linearGradient id="SVGID_00000183237726457936506680000008079054752302870401_" gradientUnits="userSpaceOnUse" x1="3058.1821" y1="1418.921" x2="2943.6799" y2="1542.6361">
					<stop offset="0" style="stop-color:#FFC444"></stop>
					<stop offset="0.9964" style="stop-color:#F36F56"></stop>
				</linearGradient>
				<path style="fill:url(#SVGID_00000183237726457936506680000008079054752302870401_);" d="M3042.027,1426.066l31.236-28.343
					l13.882-51.48c0,0,38.176,15.039,17.352,63.627c-13.304,16.196-45.985,40.49-59.867,64.206
					C3030.748,1497.791,3042.027,1426.066,3042.027,1426.066z" data-index="27"></path>
				
					<linearGradient id="SVGID_00000067208148474466232160000016595843352228609458_" gradientUnits="userSpaceOnUse" x1="2600.0105" y1="1132.4139" x2="3095.9946" y2="1920.7463">
					<stop offset="0" style="stop-color:#FF9085"></stop>
					<stop offset="1" style="stop-color:#FB6FBB"></stop>
				</linearGradient>
				<path style="fill:url(#SVGID_00000067208148474466232160000016595843352228609458_);" d="M2734.303,1771.387
					c0,0,149.813-92.548,186.255-125.519c37.998-34.379,137.955-166.587,146.632-182.205c8.676-15.617-26.897-46.853-26.897-46.853
					s-174.107,217.49-392.753,153.283C2682.245,1648.183,2734.303,1771.387,2734.303,1771.387z" data-index="28"></path>
				
					<linearGradient id="SVGID_00000172403155380269895030000001102565812426727100_" gradientUnits="userSpaceOnUse" x1="2790.4114" y1="3165.3999" x2="2790.4114" y2="3039.5579">
					<stop offset="0" style="stop-color:#FFC444"></stop>
					<stop offset="0.9964" style="stop-color:#F36F56"></stop>
				</linearGradient>
				<path style="fill:url(#SVGID_00000172403155380269895030000001102565812426727100_);" d="M2755.995,3049.425
					c0,0,27.476,69.123,20.245,99.779c29.5-0.578,48.588-4.338,48.588-4.338s-11.857-31.524-14.171-47.142
					c-3.126-21.101-2.893-55.24-2.893-55.24L2755.995,3049.425z" data-index="29"></path>
				<path style="fill:#26264F;" d="M2453.115,3211.096c1.775,2.146,4.93,6.625,5.194,12.698c0.145,3.299-0.61,6.012-1.559,8.509
					c-4.683,12.328-12.043,13.953-19.983,27.035c-4.85,7.994-3.935,10.404-8.379,14.011c-5.859,4.755-12.946,5.026-19.088,5.097
					c-10.379,0.119-25.325-0.252-44.142-2.494c9.861-12.71,20.348-25.62,31.5-38.654c4.891-5.716,9.775-11.299,14.644-16.75
					l28.993-9.794C2444.568,3210.867,2448.841,3210.981,2453.115,3211.096z" data-index="30"></path>
				
					<linearGradient id="SVGID_00000062895383436041953490000009684370145048136070_" gradientUnits="userSpaceOnUse" x1="2406.8435" y1="3201.2625" x2="2406.8435" y2="3049.6042">
					<stop offset="0" style="stop-color:#FFC444"></stop>
					<stop offset="0.9964" style="stop-color:#F36F56"></stop>
				</linearGradient>
				<path style="fill:url(#SVGID_00000062895383436041953490000009684370145048136070_);" d="M2429.004,3070.335
					c0,0-16.572,86.47,4.516,110.682c17.965,24.213-8.676,6.941-8.676,6.941l-31.813,27.765l-19.089,32.97
					c0,0,17.572-84.632,12.886-118.218c-4.687-33.585-7.03-56.236-7.03-56.236L2429.004,3070.335z" data-index="31"></path>
				
					<linearGradient id="SVGID_00000137133644637478756370000006419357142413510576_" gradientUnits="userSpaceOnUse" x1="1385.5627" y1="1040.7635" x2="1985.0327" y2="1993.5795" gradientTransform="matrix(0.9446 -0.3283 0.3283 0.9446 429.002 873.4965)">
					<stop offset="0" style="stop-color:#FF9085"></stop>
					<stop offset="1" style="stop-color:#FB6FBB"></stop>
				</linearGradient>
				<path style="fill:url(#SVGID_00000137133644637478756370000006419357142413510576_);" d="M2511.031,1569.516
					c-80.663-13.604-196.183,27.234-329.704-43.382c-131.376-69.482-208.988-172.037-254.219-237.734
					c-19.654,9.721-39.305,19.44-58.959,29.16c33.383,57.632,112.032,181.118,216.248,267.09
					c131.198,108.228,259.549,114.556,329.458,202.934C2446.73,1755.006,2550.392,1576.155,2511.031,1569.516z" data-index="32"></path>
				
					<linearGradient id="SVGID_00000096030999781872350640000004978329535464460679_" gradientUnits="userSpaceOnUse" x1="2321.9998" y1="2605.5198" x2="2818.176" y2="2605.5198">
					<stop offset="0" style="stop-color:#311944"></stop>
					<stop offset="1" style="stop-color:#893976"></stop>
				</linearGradient>
				<path style="fill:url(#SVGID_00000096030999781872350640000004978329535464460679_);" d="M2366.52,2124.476
					c0,0-44.521,39.834-44.521,203.855c0,164.022,21.089,520.183,21.089,520.183l33.746,254.993c0,0,34.99,1.245,58.421-5.784
					c21.089-96.07,55.452-258.582,39.05-394.485c-7.029-147.619,58.579-332.73,58.579-332.73s56.235,187.454,96.07,281.18
					c39.834,93.726,115.672,387.349,122.701,408.437c46.612,4.227,66.519-8.097,66.519-8.097s-29.885-315.986-58.003-435.487
					c-28.118-119.502-25.775-407.712-72.638-489.723C2582.092,2084.642,2366.52,2124.476,2366.52,2124.476z" data-index="33"></path>
				
					<linearGradient id="SVGID_00000111878682391714747490000016926402211520122028_" gradientUnits="userSpaceOnUse" x1="2306.2302" y1="2235.6462" x2="2663.6985" y2="2836.0554">
					<stop offset="0" style="stop-color:#311944"></stop>
					<stop offset="1" style="stop-color:#893976"></stop>
				</linearGradient>
				<path style="fill: url(&quot;#SVGID_00000111878682391714747490000016926402211520122028_&quot;); opacity: 1;" d="M2366.52,2124.476
					c0,0-44.521,39.834-44.521,203.855c0,164.022,21.089,520.183,21.089,520.183l33.747,254.993c0,0,34.988,1.245,58.42-5.784
					c21.089-96.07,55.452-258.582,39.05-394.485c-7.029-147.619,58.579-332.73,58.579-332.73s56.236,187.454,96.07,281.18
					c39.834,93.726,115.673,387.349,122.702,408.437c46.61,4.227,66.518-8.097,66.518-8.097s-29.886-315.986-58.003-435.487
					c-28.119-119.502-25.775-407.712-72.638-489.723C2582.093,2084.642,2366.52,2124.476,2366.52,2124.476z" data-index="34"></path>
				
					<linearGradient id="SVGID_00000041998660704568865260000008031323993984358583_" gradientUnits="userSpaceOnUse" x1="2446.9551" y1="2151.8623" x2="2804.4233" y2="2752.2712">
					<stop offset="0" style="stop-color:#311944"></stop>
					<stop offset="1" style="stop-color:#893976"></stop>
				</linearGradient>
				<path style="opacity: 1; fill: url(&quot;#SVGID_00000041998660704568865260000008031323993984358583_&quot;);" d="M2597.795,2425.011
					c13.882,90.235,41.647,138.823,111.058,201.293c55.529,41.647,13.883,131.882,34.706,201.293
					c6.941,20.823,27.765,41.647,34.706,62.47c25.829,51.66,1.705,114.848,13.416,169.546c18.226-2.518,26.496-7.586,26.496-7.586
					s-29.886-315.986-58.003-435.487c-28.119-119.502-25.775-407.712-72.638-489.723c-105.442-42.177-321.014-2.343-321.014-2.343
					S2322,2164.309,2322,2328.332c0,13.308,0.14,27.897,0.397,43.444c46.219,40.902,140.747,49.992,199.045,4.649
					c3.522-2.643,7.271-4.26,11.141-5.047c0.179-0.518,0.303-0.868,0.303-0.868s0.097,0.323,0.245,0.811
					C2559.663,2366.479,2591.775,2400.933,2597.795,2425.011z" data-index="35"></path>
				<g>
					<path style="fill:#26264F;" d="M2769.012,3175.435c0,0-6.847,0-6.277,8.845s-3.084,39.271,31.725,40.698
						c34.811,1.426,40.178-2.464,41.32-2.464c1.141,0-9.131-29.104-9.131-29.104l-11.128-14.266l-29.959-3.139L2769.012,3175.435z" data-index="36"></path>
					<path style="fill:#444B8C;" d="M2846.196,3205.977c-0.742-7.348-4.854-18.914-8.99-28.22
						c-6.146-13.827-1.102-19.001-6.975-31.596c-2.031-4.354-4.005-8.483-8.296-12.574c-0.988-0.942-10.594-9.818-24.582-9.366
						c-2.752,0.089-6.99,0.273-11.571,2.714c-5.397,2.877-8.102,7.198-10.411,10.991c-3.63,5.961-2.796,7.791-8.387,24.872
						c-0.449,1.37-1.434,4.351-2.191,8.464c-0.579,3.148-0.814,5.791-0.917,7.598c9.131,0,44.226,1.426,51.644,6.847
						c7.419,5.421,11.128,14.552,11.128,23.682s4.566,13.41,9.131,13.125C2839.858,3222.26,2847.962,3214.705,2846.196,3205.977z" data-index="37"></path>
				</g>
				<path style="fill:#444B8C;" d="M2424.556,3168.87c7.842,0.123,13.593,6.363,17.931,21.402
					c4.338,15.039,25.161,28.343,0.868,25.161c-24.294-3.181-41.936,31.236-50.612,43.961
					c-8.677,12.725-31.968,24.032-31.389,11.595c0.579-12.436,10.855-18.248,13.747-30.973
					C2377.992,3227.292,2406.671,3168.59,2424.556,3168.87z" data-index="38"></path>
				
					<linearGradient id="SVGID_00000169548528450225888700000004044465416019009705_" gradientUnits="userSpaceOnUse" x1="2164.1104" y1="1297.553" x2="2752.0796" y2="2232.0894">
					<stop offset="0" style="stop-color:#FF9085"></stop>
					<stop offset="1" style="stop-color:#FB6FBB"></stop>
				</linearGradient>
				<path style="fill:url(#SVGID_00000169548528450225888700000004044465416019009705_);" d="M2589.697,1564.31
					c-39.333-1.157-139.43-12.088-186.254,34.706c-47.876,47.845,0.607,105.286-8.023,184.138
					c-5.85,53.453-3.747,84.96-13.902,172.366c-2.072,17.835-5.429,37.805-11.093,61.951
					c-13.364,56.974-36.62,169.008-49.119,196.993c40.068,20.583,143.315,57.412,266.336,39.112
					c56.18-8.357,101.141-27.05,132.78-43.739c-31.922-96.652-25.958-229.05-14.144-276.719
					c23.329-94.117,28.603-131.073,94.545-266.425c18.18-37.318-24.99-16.415-52.637-49.167
					C2705.782,1567.293,2629.375,1565.477,2589.697,1564.31z" data-index="39"></path>
				
					<linearGradient id="SVGID_00000034077403168533703410000005049606664666293946_" gradientUnits="userSpaceOnUse" x1="1932.9204" y1="1241.0519" x2="2614.9597" y2="2325.106">
					<stop offset="0" style="stop-color:#FF9085"></stop>
					<stop offset="1" style="stop-color:#FB6FBB"></stop>
				</linearGradient>
				<path style="opacity:0.25;fill:url(#SVGID_00000034077403168533703410000005049606664666293946_);" d="M2472.854,1810.72
					c2.001-17.379,5.263-49.145-10.412-82.425c-2.592-5.506-11.403-23.153-27.765-38.177
					c-34.889-32.035-79.902-29.914-131.288-33.601c-37.602-2.697-91.467-9.427-157.853-27.892
					c98.705,61.904,190.631,81.02,250.873,139.731c-0.125,4.848-0.439,9.779-0.989,14.797c-5.85,53.453-3.747,84.96-13.902,172.366
					c-2.072,17.835-5.429,37.805-11.093,61.951c-13.364,56.974-36.619,169.008-49.119,196.993
					c40.067,20.583,143.315,57.412,266.335,39.111c56.181-8.356,101.141-27.049,132.78-43.738
					c-9.746-29.51-15.946-62.351-19.54-95.097c-45.244-0.201-111.061-7.328-179.44-41.991
					c-38.121-19.323-57.179-28.986-68.543-50.323C2431.084,1981.467,2457.579,1943.332,2472.854,1810.72z" data-index="40"></path>
				<g>
					
						<linearGradient id="SVGID_00000016053948108079820980000012679890938802374832_" gradientUnits="userSpaceOnUse" x1="2647.1401" y1="1461.8308" x2="2549.4893" y2="1619.7957">
						<stop offset="0" style="stop-color:#FFC444"></stop>
						<stop offset="0.9964" style="stop-color:#F36F56"></stop>
					</linearGradient>
					<path style="fill:url(#SVGID_00000016053948108079820980000012679890938802374832_);" d="M2556.417,1483.734
						c3.891-30.016,27.617-49.246,32.796-53.362c21.678-17.231,26.09-18.967,33.536-20.381l10.167-1.539c0,0,0.547,0.012,1.11,0.046
						c5.953,0.36,23.793,7.323,27.037,9.604c10.363,7.286,2.732,58.89-28.68,123.07c-1.235,5.435-2.47,10.87-3.706,16.305
						c27.378,4.812,34.16,9.751,34.376,13.694c0.466,8.543-29.509,19.442-57.292,20.151c-34.839,0.889-71.831-14.102-71.123-25.288
						c0.287-4.529,6.858-10.116,32.156-15.598c3.952-5.559,7.904-11.117,11.857-16.676
						C2575.063,1529.41,2553.551,1505.845,2556.417,1483.734z" data-index="41"></path>
					
						<linearGradient id="SVGID_00000144305289820720310680000015914066579296467602_" gradientUnits="userSpaceOnUse" x1="2585.0076" y1="1466.1329" x2="2731.4084" y2="1466.1329">
						<stop offset="0" style="stop-color:#311944"></stop>
						<stop offset="1" style="stop-color:#6B3976"></stop>
					</linearGradient>
					<path style="fill:url(#SVGID_00000144305289820720310680000015914066579296467602_);" d="M2622.748,1388.869
						c-10.929,10.675-13.609,29.237-10.376,42.615c1.932,8.001,4.432,8.844,4.076,14.082c-1,14.714-27.802,21.124-26.311,28.534
						c1.065,5.294,15.015,3.357,17.417,10.005c2.633,7.283-12.684,13.549-19.269,31.869c-1.026,2.855-7.255,20.188,0.74,30.387
						c7.464,9.519,24.159,7.262,42.986,4.816c20.766-2.698,35.66-8.831,40.021-10.746c13.742-6.032,28.518-12.52,40.763-27.422
						c2.902-3.531,19.958-24.935,18.528-54.844c-1.878-39.3-34.734-72.857-68.554-78.19
						C2657.288,1379.111,2636.151,1375.779,2622.748,1388.869z" data-index="42"></path>
					
						<linearGradient id="SVGID_00000010306986340112180370000000704446232527650448_" gradientUnits="userSpaceOnUse" x1="2072.3303" y1="1326.7922" x2="1977.8346" y2="1479.6532" gradientTransform="matrix(0.9717 -0.2361 0.2361 0.9717 285.212 640.4756)">
						<stop offset="0" style="stop-color:#FFC444"></stop>
						<stop offset="0.9964" style="stop-color:#F36F56"></stop>
					</linearGradient>
					<path style="fill:url(#SVGID_00000010306986340112180370000000704446232527650448_);" d="M2599.484,1472.433
						c7.901-4.728,13.921,5.438,10.2,14.322c-3.722,8.883-16.231,14.443-23.818,9.146
						C2578.28,1490.605,2588.851,1478.797,2599.484,1472.433z" data-index="43"></path>
				</g>
				
					<linearGradient id="SVGID_00000005986841567347442230000015329464402119168668_" gradientUnits="userSpaceOnUse" x1="2544.6526" y1="1484.4153" x2="2628.9226" y2="1618.3564">
					<stop offset="0.0036" style="stop-color:#E38DDD"></stop>
					<stop offset="1" style="stop-color:#9571F6"></stop>
				</linearGradient>
				<path style="fill:url(#SVGID_00000005986841567347442230000015329464402119168668_);" d="M2519.821,1564.453l19.261-5.927
					c0,0,5.038,26.078,66.974,29.338c34.375,0,56.6-19.263,56.6-19.263l14.817,6.816c0,0-30.532,38.85-76.456,37.932
					C2541.75,1612.163,2519.821,1564.453,2519.821,1564.453z" data-index="44"></path>
			</g>
		</g>
		<path style="opacity:0.69;fill:#FFFFFF;" d="M1374.167,1046.556c0,0,390.589-590.576,966.863-398.923l-20.793-100.111
			l202.073,255.004l-267.237,6.883l57.92-66.56C2312.993,742.849,1936.631,576.357,1374.167,1046.556z" data-index="45"></path>
	</g>
</g>
</svg>